<?xml version="1.0" encoding="iso-8859-1"?>
<!-- Generator: Adobe Illustrator 19.0.0, SVG Export Plug-In . SVG Version: 6.00 Build 0)  -->
<svg version="1.1" id="Capa_1" xmlns="http://www.w3.org/2000/svg" xmlns:xlink="http://www.w3.org/1999/xlink" x="0px" y="0px"
	 viewBox="0 0 512 512" style="enable-background:new 0 0 512 512;" xml:space="preserve" fill="#fff">
<g>
	<g>
		<path d="M446.44,416.44V65.56H95.56V0h-30v65.56H0v30h65.56v350.88h350.88V512h30v-65.56H512v-30H446.44z M95.56,95.56h320.88
			v209.573l-53.14-40.356l-61.382,46.542L199.88,223.567L95.56,300.82V95.56z M416.441,416.441H95.56v-0.001v-78.29l102.923-76.218
			l102.251,87.936l62.554-47.431l53.153,40.367V416.441z"/>
	</g>
</g>
<g>
	<g>
		<path d="M301.837,130.248c-25.411,0-46.085,20.674-46.085,46.086c0,25.411,20.674,46.085,46.085,46.085
			c25.412,0,46.086-20.674,46.086-46.085C347.923,150.922,327.249,130.248,301.837,130.248z M301.837,192.419
			c-8.869,0-16.085-7.216-16.085-16.085c0-8.87,7.216-16.086,16.085-16.086c8.87,0,16.086,7.216,16.086,16.086
			C317.923,185.203,310.707,192.419,301.837,192.419z"/>
	</g>
</g>
<g>
</g>
<g>
</g>
<g>
</g>
<g>
</g>
<g>
</g>
<g>
</g>
<g>
</g>
<g>
</g>
<g>
</g>
<g>
</g>
<g>
</g>
<g>
</g>
<g>
</g>
<g>
</g>
<g>
</g>
</svg>
