<svg height="512pt" viewBox="-53 0 511 512" width="512pt" xmlns="http://www.w3.org/2000/svg" fill="#fff"><path d="m373.832031 64c-17.664062 0-32 14.335938-32 32v176c0 2.945312-2.386719 5.332031-5.332031 5.332031s-5.332031-2.386719-5.332031-5.332031v-218.667969c0-17.664062-14.335938-32-32-32-17.664063 0-32 14.335938-32 32v218.667969c0 2.945312-2.390625 5.332031-5.335938 5.332031-2.941406 0-5.332031-2.386719-5.332031-5.332031v-240c0-17.664062-14.335938-32-32-32s-32 14.335938-32 32v240c0 2.945312-2.390625 5.332031-5.332031 5.332031-2.945313 0-5.335938-2.386719-5.335938-5.332031v-218.667969c0-17.664062-14.335937-32-32-32-17.664062 0-32 14.335938-32 32v249.453125l-68.628906-42.09375h-.0625c-4.695313-2.984375-10.453125-4.691406-16.640625-4.691406-17.707031 0-32 14.292969-32 32 0 6.1875 1.707031 12.160156 4.90625 17.066406l-.042969-.085937 98.324219 165.3125c15.382812 25.855469 43.246094 41.707031 73.347656 41.707031h143.464844c47.125 0 85.332031-38.207031 85.332031-85.332031v-330.667969c0-17.664062-14.335937-32-32-32zm0 0"/></svg>